# xmcd
#
# Track frame offsets:
#	150
#	12492
#	23182
#	35325
#	44757
#	56835
#	68555
#	78785
#	90707
#	104007
#	116432
#	125362
#
# Disc length: 1806 seconds
#
# Revision: 1
# Processed by: cddbd v1.5.1PL0 Copyright (c) Steve Scherf et al.
# Submitted via: EasyCDDAExtractor 6.5.0.1
#
DISCID=9c070c0c
DTITLE=Homer and Jethro - Country Their Way CD 1of3
DYEAR=2001
DGENRE=Country
TTITLE0=I'm Movin' On No. 2
TTITLE1=Settin' The Woods On Fire #2
TTITLE2=Jam-Bowl-Liar (Jambalaya)
TTITLE3=Yaller Rose Of Texas  You-all
TTITLE4=The Battle Of Kookamonga
TTITLE5=Sink The Bismarck
TTITLE6=Human Cannonball
TTITLE7=Pore Ol' Koo-liger
TTITLE8=Pusan U (Sioux City Sue)
TTITLE9=That Darling Still Of Mine
TTITLE10=The Hootin' Hooler Hilton Bar And Grill
TTITLE11=Hart Nreake Motel
EXTD=
EXTT0=
EXTT1=
EXTT2=
EXTT3=
EXTT4=
EXTT5=
EXTT6=
EXTT7=
EXTT8=
EXTT9=
EXTT10=
EXTT11=
PLAYORDER=
